# Blender v2.64 (sub 0) OBJ File: 'Wierd.blend'
# www.blender.org
mtllib Wierd.mtl
o Cube_Cube.001
v -1.000000 -1.000000 1.000000
v -1.000000 -1.000000 -1.000000
v 1.000000 -1.000000 -1.000000
v 1.000000 -1.000000 1.000000
v -1.000000 1.000000 1.000000
v -1.000000 1.000000 -1.000000
v 1.000000 1.000000 -1.000000
v 1.000000 1.000000 1.000000
v 0.990000 -1.000000 0.990000
v 0.990000 -1.000000 -0.990000
v -0.990000 -1.000000 -0.990000
v -0.990000 -1.000000 0.990000
v -1.000000 -1.000000 1.000000
v 1.000000 -1.000000 1.000000
v 1.000000 -1.000000 -1.000000
v -1.000000 -1.000000 -1.000000
v 0.990000 -1.000000 0.990000
v 0.990000 -1.000000 -0.990000
v -0.990000 -1.000000 -0.990000
v -0.990000 -1.000000 0.990000
v 0.990000 -1.000000 0.990000
v 0.990000 -1.000000 -0.990000
v -0.990000 -1.000000 -0.990000
v -0.990000 -1.000000 0.990000
v 0.990000 -5.111735 0.990000
v 0.990000 -5.111735 -0.990000
v -0.990000 -5.111735 -0.990000
v -0.990000 -5.111735 0.990000
v 0.990000 -5.678989 0.990000
v 0.990000 -5.678989 -0.990000
v -0.990000 -5.678989 -0.990000
v -0.990000 -5.678989 0.990000
v 4.264866 -5.111735 0.990000
v 4.264866 -5.111735 -0.990000
v 4.264866 -5.678989 0.990000
v 4.264866 -5.678989 -0.990000
v 5.091964 -5.111735 0.990000
v 5.091964 -5.111735 -0.990000
v 5.091964 -5.678989 0.990000
v 5.091964 -5.678989 -0.990000
v 4.264866 -3.468994 0.990000
v 4.264866 -3.468994 -0.990000
v 5.091964 -3.468994 0.990000
v 5.091964 -3.468994 -0.990000
v 4.264866 -2.445693 0.990000
v 4.264866 -2.445693 -0.990000
v 5.091964 -2.445693 0.990000
v 5.091964 -2.445693 -0.990000
v 2.606808 -3.468994 0.990000
v 2.606808 -3.468994 -0.990000
v 2.606808 -2.445693 0.990000
v 2.606808 -2.445693 -0.990000
v 1.089627 -3.468994 0.990000
v 1.089627 -3.468994 -0.990000
v 1.089627 -2.445693 0.990000
v 1.089627 -2.445693 -0.990000
v 2.606808 -4.558925 0.990000
v 2.606808 -4.558925 -0.990000
v 1.089627 -4.558925 0.990000
v 1.089627 -4.558925 -0.990000
v 2.606808 -3.468994 -4.430995
v 1.089627 -3.468994 -4.430995
v 2.606808 -4.558925 -4.430995
v 1.089627 -4.558925 -4.430995
v 2.606808 -3.468994 -4.796758
v 1.089627 -3.468994 -4.796758
v 2.606808 -4.558925 -4.796758
v 1.089627 -4.558925 -4.796758
v 5.266450 -3.468994 -4.430995
v 5.266450 -4.558925 -4.430995
v 5.266450 -3.468994 -4.796758
v 5.266450 -4.558925 -4.796758
v 7.079122 -3.468994 -4.430995
v 7.079122 -4.558925 -4.430995
v 7.079122 -3.468994 -4.796758
v 7.079122 -4.558925 -4.796758
v 5.266450 -3.468994 1.078942
v 5.266450 -4.558925 1.078942
v 7.079122 -3.468994 1.078942
v 7.079122 -4.558925 1.078942
v 5.266450 -3.468994 2.179706
v 5.266450 -4.558925 2.179706
v 7.079122 -3.468994 2.179706
v 7.079122 -4.558925 2.179706
v 5.266450 -8.841268 1.078942
v 7.079122 -8.841268 1.078942
v 5.266450 -8.841268 2.179706
v 7.079122 -8.841268 2.179706
v 5.266450 -10.446210 1.078942
v 7.079122 -10.446210 1.078942
v 5.266450 -10.446210 2.179706
v 7.079122 -10.446210 2.179706
v -2.154361 -8.841268 1.078942
v -2.154361 -8.841268 2.179706
v -2.154361 -10.446210 1.078942
v -2.154361 -10.446210 2.179706
v -3.188405 -8.841268 1.078942
v -3.188405 -8.841268 2.179706
v -3.188405 -10.446210 1.078942
v -3.188405 -10.446210 2.179706
v -2.154361 -8.841268 4.768753
v -2.154361 -10.446210 4.768753
v -3.188405 -8.841268 4.768753
v -3.188405 -10.446210 4.768753
v -2.154361 -8.841268 4.768753
v -2.154361 -10.446210 4.768753
v -3.188405 -8.841268 4.768753
v -3.188405 -10.446210 4.768753
v -2.154361 -8.841268 4.984763
v -2.154361 -10.446210 4.984763
v -3.188405 -8.841268 4.984763
v -3.188405 -10.446210 4.984763
v 6.352781 -8.841268 4.768753
v 6.352781 -10.446210 4.768753
v 6.352781 -8.841268 4.984763
v 6.352781 -10.446210 4.984763
v 6.925901 -8.841268 4.768753
v 6.925901 -10.446210 4.768753
v 6.925901 -8.841268 4.984763
v 6.925901 -10.446210 4.984763
v 8.745819 -8.841268 4.768753
v 8.745819 -10.446210 4.768753
v 8.745819 -8.841268 4.984763
v 8.745819 -10.446210 4.984763
v 9.642069 -8.841268 4.768753
v 9.642069 -10.446210 4.768753
v 9.642069 -8.841268 4.984763
v 9.642069 -10.446210 4.984763
v 8.745819 -8.841268 -7.541369
v 8.745819 -10.446210 -7.541369
v 9.642069 -8.841268 -7.541369
v 9.642069 -10.446210 -7.541369
v 8.745819 -8.841268 -8.050823
v 8.745819 -10.446210 -8.050823
v 9.642069 -8.841268 -8.050823
v 9.642069 -10.446210 -8.050823
v 1.716853 -8.841268 -7.541369
v 1.716853 -10.446210 -7.541369
v 1.716853 -8.841268 -8.050823
v 1.716853 -10.446210 -8.050823
v -2.123321 -8.841268 -7.541369
v -2.123321 -10.446210 -7.541369
v -2.123321 -8.841268 -8.050823
v -2.123321 -10.446210 -8.050823
v -2.728263 -8.841268 -7.541369
v -2.728263 -10.446210 -7.541369
v -2.728263 -8.841268 -8.050823
v -2.728263 -10.446210 -8.050823
v -2.123321 -8.841268 4.957343
v -2.123321 -10.446210 4.957343
v -2.728263 -8.841268 4.957343
v -2.728263 -10.446210 4.957343
v -2.123321 5.865352 -7.541369
v -2.123321 5.865352 -8.050823
v -2.728263 5.865352 -7.541369
v -2.728263 5.865352 -8.050823
v 8.745819 6.768915 4.768753
v 8.745819 6.768915 4.984763
v 9.642069 6.768915 4.768753
v 9.642069 6.768915 4.984763
v 8.745819 0.416064 -7.541369
v 9.642069 0.416064 -7.541369
v 8.745819 0.416064 -8.050823
v 9.642069 0.416064 -8.050823
v -2.154361 3.755687 2.179706
v -3.188405 3.755687 2.179706
v -2.154361 3.755687 4.768753
v -3.188405 3.755687 4.768753
v 5.266450 -8.841268 -8.050825
v 7.079122 -8.841268 -8.050825
v 5.266450 -10.446210 -8.050825
v 7.079122 -10.446210 -8.050825
v 9.642069 -8.841268 1.078942
v 9.642069 -8.841268 2.179706
v 9.642069 -10.446210 1.078942
v 9.642069 -10.446210 2.179706
v 5.266450 -8.841268 4.888044
v 7.079122 -8.841268 4.888044
v 5.266450 -10.446210 4.888044
v 7.079122 -10.446210 4.888044
v 9.626116 -8.841268 2.179706
v 9.626116 -10.446210 2.179706
v 9.626116 -8.841268 4.888044
v 9.626116 -10.446210 4.888044
v 3.542267 -3.468994 0.990000
v 3.542267 -3.468994 -0.990000
v 3.542267 -4.558925 0.990000
v 3.542267 -4.558925 -0.990000
v 2.606808 -5.333068 0.990000
v 2.606808 -5.333068 -0.990000
v 3.542267 -5.333068 0.990000
v 3.542267 -5.333068 -0.990000
v 1.087844 -1.000000 -1.000000
v 1.087844 -1.000000 1.000000
v 1.087844 1.000000 -1.000000
v 1.087844 1.000000 1.000000
v 9.373560 -1.000000 -1.000000
v 9.373560 -1.000000 1.000000
v 9.373560 1.000000 -1.000000
v 9.373560 1.000000 1.000000
v 1.087844 -1.000000 -2.752634
v 1.087844 1.000000 -2.752634
v 9.373560 -1.000000 -2.752634
v 9.373560 1.000000 -2.752634
v 1.087844 -1.000000 -4.453394
v 1.087844 1.000000 -4.453394
v 9.373560 -1.000000 -4.453394
v 9.373560 1.000000 -4.453394
v 0.007972 -1.000000 -2.752634
v 0.007972 1.000000 -2.752634
v 0.007972 -1.000000 -4.453394
v 0.007972 1.000000 -4.453394
v 1.087844 -1.000000 -5.955637
v 1.087844 1.000000 -5.955637
v 0.007972 -1.000000 -5.955637
v 0.007972 1.000000 -5.955637
v 1.087844 -1.000000 -6.786476
v 1.087844 1.000000 -6.786476
v 0.007972 -1.000000 -6.786476
v 0.007972 1.000000 -6.786476
v 3.725641 -1.000000 -5.955637
v 3.725641 1.000000 -5.955637
v 3.725641 -1.000000 -6.786476
v 3.725641 1.000000 -6.786476
v 5.024752 -1.000000 -5.955637
v 5.024752 1.000000 -5.955637
v 5.024752 -1.000000 -6.786476
v 5.024752 1.000000 -6.786476
v 3.725641 -2.010353 -5.955637
v 3.725641 -2.010353 -6.786476
v 5.024752 -2.010353 -5.955637
v 5.024752 -2.010353 -6.786476
v 6.059449 -1.000000 -5.955637
v 6.059449 -1.000000 -6.786476
v 6.059449 -2.010353 -5.955637
v 6.059449 -2.010353 -6.786476
v 8.834936 -1.000000 -5.955637
v 8.834936 -1.000000 -6.786476
v 8.834936 -2.010353 -5.955637
v 8.834936 -2.010353 -6.786476
v 6.059449 -3.347400 -5.955637
v 6.059449 -3.347400 -6.786476
v 8.834936 -3.347400 -5.955637
v 8.834936 -3.347400 -6.786476
v 6.059449 -4.242630 -5.955637
v 6.059449 -4.242630 -6.786476
v 8.834936 -4.242630 -5.955637
v 8.834936 -4.242630 -6.786476
v -0.580890 -3.347400 -5.955637
v -0.580890 -3.347400 -6.786476
v -0.580890 -4.242630 -5.955637
v -0.580890 -4.242630 -6.786476
vt 1.000000 0.000000
vt 1.000000 1.000000
vt 0.000000 1.000000
vt 0.000000 0.000000
vn -0.000000 1.000000 0.000000
vn -1.000000 -0.000000 0.000000
vn 0.000000 0.000000 -1.000000
vn 0.000000 0.000000 1.000000
vn 0.000000 0.000000 0.000000
vn 0.000000 -1.000000 -0.000000
vn 1.000000 0.000000 0.000000
usemtl Material
s off
f 8/1/1 7/2/1 6/3/1
f 8/1/1 6/3/1 5/4/1
f 7/2/1 8/1/1 196/1/1
f 7/2/1 196/1/1 195/2/1
f 195/2/1 196/1/1 200/1/1
f 195/2/1 200/1/1 199/2/1
f 195/2/1 199/2/1 204/2/1
f 195/2/1 204/2/1 202/2/1
f 202/2/1 204/2/1 208/2/1
f 202/2/1 208/2/1 206/2/1
f 212/2/1 210/2/1 202/2/1
f 212/2/1 202/2/1 206/2/1
f 218/2/1 220/2/1 216/2/1
f 218/2/1 216/2/1 214/2/1
f 214/2/1 216/2/1 212/2/1
f 214/2/1 212/2/1 206/2/1
f 222/2/1 224/2/1 218/2/1
f 222/2/1 218/2/1 214/2/1
f 226/2/1 228/2/1 224/2/1
f 226/2/1 224/2/1 222/2/1
usemtl Material_NONE
f 2/4/2 1/4/2 5/4/2
f 2/4/2 5/4/2 6/4/2
f 6/4/3 7/4/3 3/4/3
f 6/4/3 3/4/3 2/4/3
f 8/4/4 4/4/4 194/4/4
f 8/4/4 194/4/4 196/4/4
f 1/4/4 4/4/4 8/4/4
f 1/4/4 8/4/4 5/4/4
f 18/4/5 19/4/5 11/4/5
f 18/4/5 11/4/5 10/4/5
f 12/4/6 9/4/6 14/4/6
f 12/4/6 14/4/6 13/4/6
f 9/4/6 10/4/6 15/4/6
f 9/4/6 15/4/6 14/4/6
f 10/4/6 11/4/6 16/4/6
f 10/4/6 16/4/6 15/4/6
f 11/4/6 12/4/6 13/4/6
f 11/4/6 13/4/6 16/4/6
f 22/4/5 23/4/5 19/4/5
f 22/4/5 19/4/5 18/4/5
f 19/4/5 20/4/5 12/4/5
f 19/4/5 12/4/5 11/4/5
f 20/4/5 17/4/5 9/4/5
f 20/4/5 9/4/5 12/4/5
f 17/4/5 18/4/5 10/4/5
f 17/4/5 10/4/5 9/4/5
f 25/4/7 26/4/7 22/4/7
f 25/4/7 22/4/7 21/4/7
f 23/4/5 24/4/5 20/4/5
f 23/4/5 20/4/5 19/4/5
f 24/4/5 21/4/5 17/4/5
f 24/4/5 17/4/5 20/4/5
f 21/4/5 22/4/5 18/4/5
f 21/4/5 18/4/5 17/4/5
f 33/4/1 34/4/1 26/4/1
f 33/4/1 26/4/1 25/4/1
f 26/4/3 27/4/3 23/4/3
f 26/4/3 23/4/3 22/4/3
f 27/4/2 28/4/2 24/4/2
f 27/4/2 24/4/2 23/4/2
f 28/4/4 25/4/4 21/4/4
f 28/4/4 21/4/4 24/4/4
f 32/4/6 31/4/6 30/4/6
f 32/4/6 30/4/6 29/4/6
f 30/4/3 31/4/3 27/4/3
f 30/4/3 27/4/3 26/4/3
f 31/4/2 32/4/2 28/4/2
f 31/4/2 28/4/2 27/4/2
f 32/4/4 29/4/4 25/4/4
f 32/4/4 25/4/4 28/4/4
f 33/4/4 35/4/4 39/4/4
f 33/4/4 39/4/4 37/4/4
f 30/4/3 26/4/3 34/4/3
f 30/4/3 34/4/3 36/4/3
f 29/4/6 30/4/6 36/4/6
f 29/4/6 36/4/6 35/4/6
f 25/4/4 29/4/4 35/4/4
f 25/4/4 35/4/4 33/4/4
f 39/4/7 40/4/7 38/4/7
f 39/4/7 38/4/7 37/4/7
f 38/4/3 34/4/3 42/4/3
f 38/4/3 42/4/3 44/4/3
f 35/4/6 36/4/6 40/4/6
f 35/4/6 40/4/6 39/4/6
f 36/4/3 34/4/3 38/4/3
f 36/4/3 38/4/3 40/4/3
f 47/4/4 45/4/4 41/4/4
f 47/4/4 41/4/4 43/4/4
f 41/4/2 42/4/2 34/4/2
f 41/4/2 34/4/2 33/4/2
f 37/4/7 38/4/7 44/4/7
f 37/4/7 44/4/7 43/4/7
f 43/4/4 41/4/4 33/4/4
f 43/4/4 33/4/4 37/4/4
f 47/4/1 48/4/1 46/4/1
f 47/4/1 46/4/1 45/4/1
f 44/4/3 42/4/3 46/4/3
f 44/4/3 46/4/3 48/4/3
f 50/4/3 52/4/3 46/4/3
f 50/4/3 46/4/3 42/4/3
f 43/4/7 44/4/7 48/4/7
f 43/4/7 48/4/7 47/4/7
f 185/4/1 186/4/1 50/4/1
f 185/4/1 50/4/1 49/4/1
f 49/4/6 50/4/6 42/4/6
f 49/4/6 42/4/6 41/4/6
f 45/4/1 46/4/1 52/4/1
f 45/4/1 52/4/1 51/4/1
f 51/4/4 49/4/4 41/4/4
f 51/4/4 41/4/4 45/4/4
f 55/4/2 56/4/2 54/4/2
f 55/4/2 54/4/2 53/4/2
f 51/4/1 52/4/1 56/4/1
f 51/4/1 56/4/1 55/4/1
f 55/4/4 53/4/4 49/4/4
f 55/4/4 49/4/4 51/4/4
f 54/4/3 56/4/3 52/4/3
f 54/4/3 52/4/3 50/4/3
f 59/4/6 60/4/6 58/4/6
f 59/4/6 58/4/6 57/4/6
f 53/4/2 54/4/2 60/4/2
f 53/4/2 60/4/2 59/4/2
f 62/4/2 64/4/2 60/4/2
f 62/4/2 60/4/2 54/4/2
f 49/4/4 53/4/4 59/4/4
f 49/4/4 59/4/4 57/4/4
f 63/4/6 67/4/6 72/4/6
f 63/4/6 72/4/6 70/4/6
f 54/4/1 50/4/1 61/4/1
f 54/4/1 61/4/1 62/4/1
f 63/4/7 61/4/7 50/4/7
f 63/4/7 50/4/7 58/4/7
f 64/4/6 63/4/6 58/4/6
f 64/4/6 58/4/6 60/4/6
f 66/4/3 65/4/3 67/4/3
f 66/4/3 67/4/3 68/4/3
f 66/4/2 68/4/2 64/4/2
f 66/4/2 64/4/2 62/4/2
f 62/4/1 61/4/1 65/4/1
f 62/4/1 65/4/1 66/4/1
f 68/4/6 67/4/6 63/4/6
f 68/4/6 63/4/6 64/4/6
f 72/4/3 71/4/3 75/4/3
f 72/4/3 75/4/3 76/4/3
f 70/4/4 69/4/4 61/4/4
f 70/4/4 61/4/4 63/4/4
f 67/4/3 65/4/3 71/4/3
f 67/4/3 71/4/3 72/4/3
f 65/4/1 61/4/1 69/4/1
f 65/4/1 69/4/1 71/4/1
f 76/4/7 75/4/7 73/4/7
f 76/4/7 73/4/7 74/4/7
f 71/4/1 69/4/1 73/4/1
f 71/4/1 73/4/1 75/4/1
f 70/4/6 72/4/6 76/4/6
f 70/4/6 76/4/6 74/4/6
f 80/4/6 78/4/6 70/4/6
f 80/4/6 70/4/6 74/4/6
f 86/4/3 85/4/3 78/4/3
f 86/4/3 78/4/3 80/4/3
f 74/4/7 73/4/7 79/4/7
f 74/4/7 79/4/7 80/4/7
f 77/4/1 79/4/1 73/4/1
f 77/4/1 73/4/1 69/4/1
f 78/4/2 77/4/2 69/4/2
f 78/4/2 69/4/2 70/4/2
f 84/4/4 83/4/4 81/4/4
f 84/4/4 81/4/4 82/4/4
f 82/4/2 81/4/2 77/4/2
f 82/4/2 77/4/2 78/4/2
f 80/4/7 79/4/7 83/4/7
f 80/4/7 83/4/7 84/4/7
f 81/4/1 83/4/1 79/4/1
f 81/4/1 79/4/1 77/4/1
f 91/4/4 87/4/4 94/4/4
f 91/4/4 94/4/4 96/4/4
f 84/4/4 82/4/4 87/4/4
f 84/4/4 87/4/4 88/4/4
f 82/4/2 78/4/2 85/4/2
f 82/4/2 85/4/2 87/4/2
f 80/4/7 84/4/7 88/4/7
f 80/4/7 88/4/7 86/4/7
f 92/4/6 91/4/6 89/4/6
f 92/4/6 89/4/6 90/4/6
f 86/4/1 88/4/1 174/4/1
f 86/4/1 174/4/1 173/4/1
f 170/4/1 169/4/1 85/4/1
f 170/4/1 85/4/1 86/4/1
f 180/4/6 179/4/6 91/4/6
f 180/4/6 91/4/6 92/4/6
f 94/4/1 93/4/1 97/4/1
f 94/4/1 97/4/1 98/4/1
f 87/4/1 85/4/1 93/4/1
f 87/4/1 93/4/1 94/4/1
f 96/4/6 95/4/6 89/4/6
f 96/4/6 89/4/6 91/4/6
f 85/4/3 89/4/3 95/4/3
f 85/4/3 95/4/3 93/4/3
f 98/4/2 97/4/2 99/4/2
f 98/4/2 99/4/2 100/4/2
f 100/4/6 99/4/6 95/4/6
f 100/4/6 95/4/6 96/4/6
f 93/4/3 95/4/3 99/4/3
f 93/4/3 99/4/3 97/4/3
f 104/4/2 103/4/2 98/4/2
f 104/4/2 98/4/2 100/4/2
f 106/4/5 108/4/5 104/4/5
f 106/4/5 104/4/5 102/4/5
f 102/4/6 104/4/6 100/4/6
f 102/4/6 100/4/6 96/4/6
f 101/4/7 94/4/7 165/4/7
f 101/4/7 165/4/7 167/4/7
f 96/4/7 94/4/7 101/4/7
f 96/4/7 101/4/7 102/4/7
f 111/4/1 109/4/1 105/4/1
f 111/4/1 105/4/1 107/4/1
f 102/4/5 101/4/5 105/4/5
f 102/4/5 105/4/5 106/4/5
f 108/4/5 107/4/5 103/4/5
f 108/4/5 103/4/5 104/4/5
f 107/4/5 105/4/5 101/4/5
f 107/4/5 101/4/5 103/4/5
f 110/4/4 109/4/4 111/4/4
f 110/4/4 111/4/4 112/4/4
f 110/4/6 112/4/6 108/4/6
f 110/4/6 108/4/6 106/4/6
f 106/4/3 105/4/3 113/4/3
f 106/4/3 113/4/3 114/4/3
f 112/4/2 111/4/2 107/4/2
f 112/4/2 107/4/2 108/4/2
f 120/4/4 119/4/4 115/4/4
f 120/4/4 115/4/4 116/4/4
f 114/4/6 116/4/6 110/4/6
f 114/4/6 110/4/6 106/4/6
f 116/4/4 115/4/4 109/4/4
f 116/4/4 109/4/4 110/4/4
f 115/4/1 113/4/1 105/4/1
f 115/4/1 105/4/1 109/4/1
f 118/4/3 117/4/3 121/4/3
f 118/4/3 121/4/3 122/4/3
f 119/4/1 117/4/1 113/4/1
f 119/4/1 113/4/1 115/4/1
f 118/4/6 120/4/6 116/4/6
f 118/4/6 116/4/6 114/4/6
f 114/4/3 113/4/3 117/4/3
f 114/4/3 117/4/3 118/4/3
f 126/4/6 128/4/6 124/4/6
f 126/4/6 124/4/6 122/4/6
f 124/4/4 123/4/4 119/4/4
f 124/4/4 119/4/4 120/4/4
f 123/4/1 121/4/1 117/4/1
f 123/4/1 117/4/1 119/4/1
f 122/4/6 124/4/6 120/4/6
f 122/4/6 120/4/6 118/4/6
f 126/4/7 125/4/7 127/4/7
f 126/4/7 127/4/7 128/4/7
f 121/4/1 125/4/1 131/4/1
f 121/4/1 131/4/1 129/4/1
f 128/4/4 127/4/4 123/4/4
f 128/4/4 123/4/4 124/4/4
f 127/4/7 125/4/7 159/4/7
f 127/4/7 159/4/7 160/4/7
f 134/4/6 136/4/6 132/4/6
f 134/4/6 132/4/6 130/4/6
f 122/4/2 121/4/2 129/4/2
f 122/4/2 129/4/2 130/4/2
f 132/4/7 131/4/7 125/4/7
f 132/4/7 125/4/7 126/4/7
f 130/4/6 132/4/6 126/4/6
f 130/4/6 126/4/6 122/4/6
f 134/4/3 133/4/3 135/4/3
f 134/4/3 135/4/3 136/4/3
f 129/4/4 131/4/4 162/4/4
f 129/4/4 162/4/4 161/4/4
f 138/4/6 140/4/6 134/4/6
f 138/4/6 134/4/6 130/4/6
f 136/4/7 135/4/7 131/4/7
f 136/4/7 131/4/7 132/4/7
f 138/4/4 137/4/4 141/4/4
f 138/4/4 141/4/4 142/4/4
f 130/4/4 129/4/4 137/4/4
f 130/4/4 137/4/4 138/4/4
f 139/4/1 137/4/1 129/4/1
f 139/4/1 129/4/1 133/4/1
f 140/4/3 139/4/3 133/4/3
f 140/4/3 133/4/3 134/4/3
f 154/4/7 153/4/7 141/4/7
f 154/4/7 141/4/7 143/4/7
f 144/4/3 143/4/3 139/4/3
f 144/4/3 139/4/3 140/4/3
f 142/4/6 144/4/6 140/4/6
f 142/4/6 140/4/6 138/4/6
f 143/4/1 141/4/1 137/4/1
f 143/4/1 137/4/1 139/4/1
f 146/4/2 145/4/2 147/4/2
f 146/4/2 147/4/2 148/4/2
f 146/4/6 142/4/6 150/4/6
f 146/4/6 150/4/6 152/4/6
f 148/4/3 147/4/3 143/4/3
f 148/4/3 143/4/3 144/4/3
f 146/4/6 148/4/6 144/4/6
f 146/4/6 144/4/6 142/4/6
f 150/4/4 149/4/4 151/4/4
f 150/4/4 151/4/4 152/4/4
f 142/4/7 141/4/7 149/4/7
f 142/4/7 149/4/7 150/4/7
f 152/4/2 151/4/2 145/4/2
f 152/4/2 145/4/2 146/4/2
f 151/4/1 149/4/1 141/4/1
f 151/4/1 141/4/1 145/4/1
f 156/4/1 155/4/1 153/4/1
f 156/4/1 153/4/1 154/4/1
f 147/4/2 145/4/2 155/4/2
f 147/4/2 155/4/2 156/4/2
f 145/4/4 141/4/4 153/4/4
f 145/4/4 153/4/4 155/4/4
f 143/4/3 147/4/3 156/4/3
f 143/4/3 156/4/3 154/4/3
f 160/4/1 159/4/1 157/4/1
f 160/4/1 157/4/1 158/4/1
f 157/4/3 159/4/3 125/4/3
f 157/4/3 125/4/3 121/4/3
f 160/4/4 158/4/4 123/4/4
f 160/4/4 123/4/4 127/4/4
f 158/4/2 157/4/2 121/4/2
f 158/4/2 121/4/2 123/4/2
f 161/4/1 162/4/1 164/4/1
f 161/4/1 164/4/1 163/4/1
f 131/4/7 135/4/7 164/4/7
f 131/4/7 164/4/7 162/4/7
f 163/4/3 164/4/3 135/4/3
f 163/4/3 135/4/3 133/4/3
f 133/4/2 129/4/2 161/4/2
f 133/4/2 161/4/2 163/4/2
f 168/4/1 167/4/1 165/4/1
f 168/4/1 165/4/1 166/4/1
f 168/4/2 166/4/2 98/4/2
f 168/4/2 98/4/2 103/4/2
f 166/4/3 165/4/3 94/4/3
f 166/4/3 94/4/3 98/4/3
f 103/4/4 101/4/4 167/4/4
f 103/4/4 167/4/4 168/4/4
f 172/4/3 171/4/3 169/4/3
f 172/4/3 169/4/3 170/4/3
f 172/4/7 170/4/7 86/4/7
f 172/4/7 86/4/7 90/4/7
f 90/4/6 89/4/6 171/4/6
f 90/4/6 171/4/6 172/4/6
f 169/4/2 171/4/2 89/4/2
f 169/4/2 89/4/2 85/4/2
f 173/4/7 174/4/7 176/4/7
f 173/4/7 176/4/7 175/4/7
f 88/4/4 92/4/4 176/4/4
f 88/4/4 176/4/4 174/4/4
f 175/4/6 176/4/6 92/4/6
f 175/4/6 92/4/6 90/4/6
f 90/4/3 86/4/3 173/4/3
f 90/4/3 173/4/3 175/4/3
f 178/4/4 177/4/4 179/4/4
f 178/4/4 179/4/4 180/4/4
f 179/4/2 177/4/2 87/4/2
f 179/4/2 87/4/2 91/4/2
f 182/4/6 184/4/6 180/4/6
f 182/4/6 180/4/6 92/4/6
f 88/4/1 87/4/1 177/4/1
f 88/4/1 177/4/1 178/4/1
f 183/4/7 184/4/7 182/4/7
f 183/4/7 182/4/7 181/4/7
f 181/4/3 182/4/3 92/4/3
f 181/4/3 92/4/3 88/4/3
f 178/4/4 180/4/4 184/4/4
f 178/4/4 184/4/4 183/4/4
f 88/4/1 178/4/1 183/4/1
f 88/4/1 183/4/1 181/4/1
f 187/4/7 188/4/7 186/4/7
f 187/4/7 186/4/7 185/4/7
f 187/4/4 57/4/4 189/4/4
f 187/4/4 189/4/4 191/4/4
f 58/4/3 50/4/3 186/4/3
f 58/4/3 186/4/3 188/4/3
f 49/4/4 57/4/4 187/4/4
f 49/4/4 187/4/4 185/4/4
f 189/4/6 190/4/6 192/4/6
f 189/4/6 192/4/6 191/4/6
f 57/4/2 58/4/2 190/4/2
f 57/4/2 190/4/2 189/4/2
f 191/4/7 192/4/7 188/4/7
f 191/4/7 188/4/7 187/4/7
f 58/4/3 188/4/3 192/4/3
f 58/4/3 192/4/3 190/4/3
f 196/4/4 194/4/4 198/4/4
f 196/4/4 198/4/4 200/4/4
f 195/4/3 193/4/3 3/4/3
f 195/4/3 3/4/3 7/4/3
f 4/4/6 3/4/6 193/4/6
f 4/4/6 193/4/6 194/4/6
f 199/4/7 200/4/7 198/4/7
f 199/4/7 198/4/7 197/4/7
f 194/4/6 193/4/6 197/4/6
f 194/4/6 197/4/6 198/4/6
f 201/4/6 203/4/6 197/4/6
f 201/4/6 197/4/6 193/4/6
f 204/4/7 203/4/7 207/4/7
f 204/4/7 207/4/7 208/4/7
f 202/4/2 201/4/2 193/4/2
f 202/4/2 193/4/2 195/4/2
f 199/4/7 197/4/7 203/4/7
f 199/4/7 203/4/7 204/4/7
f 208/4/3 207/4/3 205/4/3
f 208/4/3 205/4/3 206/4/3
f 205/4/6 207/4/6 203/4/6
f 205/4/6 203/4/6 201/4/6
f 212/4/2 211/4/2 209/4/2
f 212/4/2 209/4/2 210/4/2
f 206/4/7 205/4/7 213/4/7
f 206/4/7 213/4/7 214/4/7
f 209/4/6 211/4/6 205/4/6
f 209/4/6 205/4/6 201/4/6
f 210/4/4 209/4/4 201/4/4
f 210/4/4 201/4/4 202/4/4
f 216/4/2 215/4/2 211/4/2
f 216/4/2 211/4/2 212/4/2
f 205/4/6 211/4/6 215/4/6
f 205/4/6 215/4/6 213/4/6
f 218/4/3 217/4/3 219/4/3
f 218/4/3 219/4/3 220/4/3
f 213/4/6 215/4/6 219/4/6
f 213/4/6 219/4/6 217/4/6
f 220/4/2 219/4/2 215/4/2
f 220/4/2 215/4/2 216/4/2
f 228/4/3 227/4/3 223/4/3
f 228/4/3 223/4/3 224/4/3
f 214/4/4 213/4/4 221/4/4
f 214/4/4 221/4/4 222/4/4
f 223/4/6 221/4/6 213/4/6
f 223/4/6 213/4/6 217/4/6
f 224/4/3 223/4/3 217/4/3
f 224/4/3 217/4/3 218/4/3
f 226/4/7 225/4/7 227/4/7
f 226/4/7 227/4/7 228/4/7
f 232/4/3 230/4/3 223/4/3
f 232/4/3 223/4/3 227/4/3
f 222/4/4 221/4/4 225/4/4
f 222/4/4 225/4/4 226/4/4
f 232/4/6 231/4/6 229/4/6
f 232/4/6 229/4/6 230/4/6
f 230/4/2 229/4/2 221/4/2
f 230/4/2 221/4/2 223/4/2
f 225/4/4 231/4/4 235/4/4
f 225/4/4 235/4/4 233/4/4
f 225/4/4 221/4/4 229/4/4
f 225/4/4 229/4/4 231/4/4
f 233/4/4 235/4/4 239/4/4
f 233/4/4 239/4/4 237/4/4
f 236/4/6 235/4/6 231/4/6
f 236/4/6 231/4/6 232/4/6
f 234/4/3 236/4/3 232/4/3
f 234/4/3 232/4/3 227/4/3
f 227/4/1 225/4/1 233/4/1
f 227/4/1 233/4/1 234/4/1
f 238/4/7 237/4/7 239/4/7
f 238/4/7 239/4/7 240/4/7
f 234/4/1 233/4/1 237/4/1
f 234/4/1 237/4/1 238/4/1
f 242/4/2 241/4/2 235/4/2
f 242/4/2 235/4/2 236/4/2
f 238/4/3 240/4/3 236/4/3
f 238/4/3 236/4/3 234/4/3
f 250/4/1 249/4/1 241/4/1
f 250/4/1 241/4/1 242/4/1
f 241/4/4 243/4/4 239/4/4
f 241/4/4 239/4/4 235/4/4
f 240/4/7 239/4/7 243/4/7
f 240/4/7 243/4/7 244/4/7
f 236/4/3 240/4/3 244/4/3
f 236/4/3 244/4/3 242/4/3
f 248/4/6 247/4/6 245/4/6
f 248/4/6 245/4/6 246/4/6
f 244/4/7 243/4/7 247/4/7
f 244/4/7 247/4/7 248/4/7
f 245/4/4 247/4/4 243/4/4
f 245/4/4 243/4/4 241/4/4
f 242/4/3 244/4/3 248/4/3
f 242/4/3 248/4/3 246/4/3
f 252/4/2 251/4/2 249/4/2
f 252/4/2 249/4/2 250/4/2
f 246/4/6 245/4/6 251/4/6
f 246/4/6 251/4/6 252/4/6
f 245/4/4 241/4/4 249/4/4
f 245/4/4 249/4/4 251/4/4
f 242/4/3 246/4/3 252/4/3
f 242/4/3 252/4/3 250/4/3
